{"title":"Blowjob.Beauties.2014.XXX.DVDRiP-ViK","uid":10718544,"size":1932828601,"categoryP":"porn","categoryS":"movies","magnet":"?xt=urn:btih:af31b032dbdcde13bbbf3471fe1da2adafb3e7f2&amp;dn=Blowjob.Beauties.2014.XXX.DVDRiP-ViK&amp;tr=udp%3A%2F%2Ftracker.openbittorrent.com%3A80&amp;tr=udp%3A%2F%2Fopen.demonii.com%3A1337&amp;tr=udp%3A%2F%2Ftracker.coppersurfer.tk%3A6969&amp;tr=udp%3A%2F%2Fexodus.desync.com%3A6969","seeders":0,"leechers":1,"uploader":"iH2OSO4","files":-1,"time":1407444864,"description":"Pussy is great, but looking down at your cock and watching a beautiful girl swallowing your hard dick is a sight that can't be beat! Watch 7 beautiful women worship monster cocks with their lips and wet tongues! That's right baby, kiss that frog!\n\nGeneral\nBlowjob.Beauties.2014.XXX.DVDRiP-ViK.mp4\n\nSOURCE :  &lt;a href=&quot; http://nuscotower.com/i/dftj1589l.html&quot; rel=&quot;nofollow&quot; target=&quot;_NEW&quot;&gt; http://nuscotower.com/i/dftj1589l.html&lt;/a&gt;\n\nFormat                           : MPEG-4\nFormat profile                   : Base Media\nCodec ID                         : isom\nFile size                        : 1.80 GiB\nDuration                         : 2h 4mn\nOverall bit rate                 : 2 071 Kbps\nEncoded date                     : UTC 2014-08-07 14:58:27\nTagged date                      : UTC 2014-08-07 14:58:27\n\nVideo\nID                               : 1\nFormat                           : MPEG-4 Visual\nFormat profile                   : Simple@L1\nFormat settings, BVOP            : No\nFormat settings, QPel            : No\nFormat settings, GMC             : No warppoints\nFormat settings, Matrix          : Default (H.263)\nCodec ID                         : 20\nDuration                         : 2h 4mn\nBit rate mode                    : Variable\nBit rate                         : 1 943 Kbps\nMaximum bit rate                 : 5 416 Kbps\nWidth                            : 728 pixels\nHeight                           : 408 pixels\nDisplay aspect ratio             : 16:9\nFrame rate mode                  : Constant\nFrame rate                       : 29.970 fps\nColor space                      : YUV\nChroma subsampling               : 4:2:0\nBit depth                        : 8 bits\nScan type                        : Progressive\nCompression mode                 : Lossy\nBits/(Pixel*Frame)               : 0.218\nStream size                      : 1.69 GiB (94%)\nWriting library                  : Lavc53.8.0\nEncoded date                     : UTC 2014-08-07 14:58:27\nTagged date                      : UTC 2014-08-07 15:00:40\n\nAudio\nID                               : 2\nFormat                           : AAC\nFormat/Info                      : Advanced Audio Codec\nFormat profile                   : LC\nCodec ID                         : 40\nDuration                         : 2h 4mn\nBit rate mode                    : Variable\nBit rate                         : 125 Kbps\nMaximum bit rate                 : 264 Kbps\nChannel(s)                       : 2 channels\nChannel positions                : Front: L R\nSampling rate                    : 44.1 KHz\nCompression mode                 : Lossy\nStream size                      : 112 MiB (6%)\nEncoded date                     : UTC 2014-08-07 15:00:21\nTagged date                      : UTC 2014-08-07 15:00:40\n &lt;a href=&quot;\nhttp://www.cduniverse.com/productinfo.asp?pid=9264066&amp;style=ice&quot; rel=&quot;nofollow&quot; target=&quot;_NEW&quot;&gt;\nhttp://www.cduniverse.com/productinfo.asp?pid=9264066&amp;style=ice&lt;/a&gt;","torrent":{"xt":"urn:btih:af31b032dbdcde13bbbf3471fe1da2adafb3e7f2","amp;dn":"Blowjob.Beauties.2014.XXX.DVDRiP-ViK","amp;tr":["udp%3A%2F%2Ftracker.openbittorrent.com%3A80","udp%3A%2F%2Fopen.demonii.com%3A1337","udp%3A%2F%2Ftracker.coppersurfer.tk%3A6969","udp%3A%2F%2Fexodus.desync.com%3A6969"],"infoHash":"af31b032dbdcde13bbbf3471fe1da2adafb3e7f2","infoHashBuffer":{"type":"Buffer","data":[175,49,176,50,219,220,222,19,187,191,52,113,254,29,162,173,175,179,231,242]},"announce":[],"urlList":[]}}